<?xml version="1.0" encoding="utf-8"?>
<!-- Generator: Adobe Illustrator 27.0.0, SVG Export Plug-In . SVG Version: 6.00 Build 0)  -->
<svg version="1.1" id="Слой_1" xmlns="http://www.w3.org/2000/svg" xmlns:xlink="http://www.w3.org/1999/xlink" x="0px" y="0px"
	 viewBox="0 0 1440 560" style="enable-background:new 0 0 1440 560;" xml:space="preserve">
<style type="text/css">
	.st0{fill:url(#SVGID_1_);}
	.st1{fill:#FFFFFF;}
	.st2{fill:none;stroke:#5F82FF;stroke-width:3;}
	.st3{fill:url(#SVGID_00000062188470149686859500000007673648038289763477_);fill-opacity:0.4;}
	.st4{fill:none;stroke:#D8E0F7;}
	.st5{fill:none;stroke:#5E80FE;stroke-width:2;}
	.st6{fill-rule:evenodd;clip-rule:evenodd;fill:#FFFFFF;}
	.st7{fill:#D8E0F7;}
	.st8{fill:none;stroke:#5F82FF;stroke-width:4;stroke-linecap:round;stroke-linejoin:round;}
	.st9{fill-rule:evenodd;clip-rule:evenodd;fill:#5F82FF;}
	.st10{fill:#5F82FF;}
</style>
<linearGradient id="SVGID_1_" gradientUnits="userSpaceOnUse" x1="720" y1="-954" x2="720" y2="-1514.0342" gradientTransform="matrix(1 0 0 -1 0 -954)">
	<stop  offset="0" style="stop-color:#F4F7FF"/>
	<stop  offset="1" style="stop-color:#F1F5FF"/>
</linearGradient>
<rect class="st0" width="1440" height="560"/>
<g>
	<path class="st1" d="M1439.5,388c-30.7,0-55.5,24.6-55.5,55h55.5V388z"/>
</g>
<path class="st2" d="M0,532c202.7,0,347.5-34.9,480.3-32.8c309.4,4.9,163.3-142.1,480.3-142.1c345.2,0,262.6-129.7,480.3-129.7"/>
<linearGradient id="SVGID_00000039848363683136043250000011423537556805516170_" gradientUnits="userSpaceOnUse" x1="720.5" y1="-1514.4589" x2="720.5" y2="-1078.0071" gradientTransform="matrix(1 0 0 -1 0 -954)">
	<stop  offset="0" style="stop-color:#4B71FF;stop-opacity:0"/>
	<stop  offset="1" style="stop-color:#6B89F8"/>
</linearGradient>
<path style="fill:url(#SVGID_00000039848363683136043250000011423537556805516170_);fill-opacity:0.4;" d="M480.3,499.3
	C347.5,497.1,202.7,532,0,532v28h1441V227.5c-217.8,0-135.1,129.7-480.3,129.7C643.6,357.2,789.7,504.2,480.3,499.3z"/>
<line class="st4" x1="924.5" y1="309.5" x2="924.5" y2="498.5"/>
<g>
	<circle class="st1" cx="924.5" cy="358" r="7.5"/>
	<circle class="st5" cx="924.5" cy="358" r="6.5"/>
</g>
<line class="st4" x1="1332.5" y1="109.5" x2="1332.5" y2="426.5"/>
<g>
	<circle class="st1" cx="1332.5" cy="244" r="7.5"/>
	<circle class="st5" cx="1332.5" cy="244" r="6.5"/>
</g>
<line class="st4" x1="515.5" y1="487.5" x2="515.5" y2="546.5"/>
<line class="st4" x1="107.5" y1="371.5" x2="107.5" y2="560"/>
<g>
	<circle class="st1" cx="107.5" cy="529" r="7.5"/>
	<circle class="st5" cx="107.5" cy="529" r="6.5"/>
</g>
<g>
	<path class="st1" d="M264.7,379.5c-6.5,0-11.7,5.3-11.7,11.9h23.4C276.4,384.8,271.2,379.5,264.7,379.5z"/>
</g>
<g>
	<path class="st1" d="M310.7,385.5c-9,0-16.3,7.4-16.3,16.5H327C327,392.9,319.7,385.5,310.7,385.5z"/>
</g>
<g>
	<path class="st1" d="M286.1,377.2c-13.7,0-24.8,11.1-24.8,24.8h49.6C310.9,388.3,299.8,377.2,286.1,377.2z"/>
</g>
<g>
	<path class="st1" d="M1205,475.5c-18.8,0-34,15.5-34,34.5h68C1239,490.9,1223.8,475.5,1205,475.5z"/>
</g>
<g>
	<path class="st1" d="M1181.7,446c-13.1,0-23.7,10.8-23.7,24.1h47.4C1205.4,456.8,1194.8,446,1181.7,446z"/>
</g>
<g>
	<path class="st1" d="M1136.7,458.2c-28.6,0-51.7,23.2-51.7,51.8h103.5C1188.5,481.4,1165.3,458.2,1136.7,458.2z"/>
</g>
<g>
	<path class="st1" d="M1262.9,34c-21.5,0-38.9,17.5-38.9,39h77.8C1301.8,51.5,1284.4,34,1262.9,34z"/>
</g>
<g>
	<path class="st1" d="M1279.5,67c-12.4,0-22.5,10.3-22.5,23h45C1302,77.3,1291.9,67,1279.5,67z"/>
</g>
<g>
	<path class="st1" d="M275.5,73C263.1,73,253,83.3,253,96h45C298,83.3,287.9,73,275.5,73z"/>
</g>
<g>
	<path class="st1" d="M75,233c0-42-33.4-76-74.5-76v76H75z"/>
</g>
<g>
	<path class="st1" d="M317.1,367c-5.5,0-9.9,4.6-9.9,10.2H327C327,371.6,322.6,367,317.1,367z"/>
</g>
<g>
	<path class="st1" d="M1223.5,18c-8.6,0-15.5,7.2-15.5,16h31C1239,25.2,1232.1,18,1223.5,18z"/>
</g>
<g>
	<circle class="st1" cx="515.5" cy="499" r="7.5"/>
	<circle class="st5" cx="515.5" cy="499" r="6.5"/>
</g>
<g>
	<path class="st6" d="M562,412.5c0-1.7-1.3-3-3-3h-86c-1.7,0-3,1.3-3,3v57.3c0,1.7,1.3,3,3,3h36.7c1,0,1.9,0.5,2.5,1.3l1.4,2
		c1.2,1.8,3.8,1.8,5,0l1.4-2c0.6-0.8,1.5-1.3,2.5-1.3H559c1.7,0,3-1.3,3-3V412.5z"/>
	<path class="st7" d="M519.8,474.1l-0.8-0.6L519.8,474.1z M513.5,476.1l0.8-0.6L513.5,476.1z M512.2,474.1l-0.8,0.6L512.2,474.1z
		 M473,410.5h86v-2h-86V410.5z M471,469.8v-57.3h-2v57.3H471z M509.7,471.8H473v2h36.7V471.8z M514.3,475.5l-1.4-2l-1.7,1.1l1.4,2
		L514.3,475.5z M519,473.5l-1.4,2l1.7,1.1l1.4-2L519,473.5z M559,471.8h-36.7v2H559V471.8z M561,412.5v57.3h2v-57.3H561z M559,473.8
		c2.2,0,4-1.8,4-4h-2c0,1.1-0.9,2-2,2V473.8z M520.7,474.6c0.4-0.6,1-0.9,1.7-0.9v-2c-1.3,0-2.6,0.7-3.3,1.8L520.7,474.6z
		 M512.7,476.7c1.6,2.3,5,2.3,6.6,0l-1.7-1.1c-0.8,1.2-2.5,1.2-3.3,0L512.7,476.7z M509.7,473.8c0.7,0,1.3,0.3,1.7,0.9l1.7-1.1
		c-0.7-1.1-2-1.8-3.3-1.8v2H509.7z M469,469.8c0,2.2,1.8,4,4,4v-2c-1.1,0-2-0.9-2-2H469z M559,410.5c1.1,0,2,0.9,2,2h2
		c0-2.2-1.8-4-4-4V410.5z M473,408.5c-2.2,0-4,1.8-4,4h2c0-1.1,0.9-2,2-2V408.5z"/>
	<path class="st8" d="M499,442.8c0-9.5,7.7-17.2,17.1-17.2c1.7,0,3.4,0.3,5,0.8"/>
	<path class="st9" d="M512.4,446.5c2,2.1,5.3,2.1,7.4,0c2-2.1,10.5-16.5,9.7-17.2c-0.7-0.8-15.1,7.7-17.1,9.8
		C510.4,441.1,510.4,444.4,512.4,446.5z M516.1,444.2c0.8,0,1.5-0.7,1.5-1.5s-0.7-1.5-1.5-1.5s-1.5,0.7-1.5,1.5
		S515.3,444.2,516.1,444.2z"/>
	<ellipse class="st10" cx="501.2" cy="451.8" rx="1.5" ry="1.5"/>
	<ellipse class="st10" cx="507.2" cy="457.8" rx="1.5" ry="1.5"/>
	<ellipse class="st10" cx="516.1" cy="460" rx="1.5" ry="1.5"/>
	<ellipse class="st10" cx="525.1" cy="457.8" rx="1.5" ry="1.5"/>
	<ellipse class="st10" cx="530.3" cy="451.8" rx="1.5" ry="1.5"/>
	<ellipse class="st10" cx="532.5" cy="442.8" rx="1.5" ry="1.5"/>
</g>
</svg>
